<?xml version="1.0" standalone="no"?>
<!DOCTYPE svg PUBLIC "-//W3C//DTD SVG 20010904//EN"
 "http://www.w3.org/TR/2001/REC-SVG-20010904/DTD/svg10.dtd">
<svg version="1.0" xmlns="http://www.w3.org/2000/svg"
 width="384.000000pt" height="221.000000pt" viewBox="0 0 384.000000 221.000000"
 preserveAspectRatio="xMidYMid meet">

<g transform="translate(0.000000,221.000000) scale(0.100000,-0.100000)"
fill="#000000" stroke="none">
<path d="M1921 1724 c0 -11 3 -14 6 -6 3 7 2 16 -1 19 -3 4 -6 -2 -5 -13z"/>
<path d="M1681 1604 c0 -11 3 -14 6 -6 3 7 2 16 -1 19 -3 4 -6 -2 -5 -13z"/>
<path d="M2360 1324 c0 -2 22 -15 49 -28 52 -27 98 -74 107 -111 13 -54 -58
-125 -164 -165 -126 -48 -210 -61 -407 -67 -330 -10 -562 42 -685 153 -28 25
-39 31 -32 18 45 -85 209 -156 452 -196 111 -18 434 -15 555 6 225 37 364 98
400 172 15 31 15 37 -1 69 -19 41 -50 65 -127 100 -55 26 -147 56 -147 49z"/>
<path d="M1781 1294 c0 -11 3 -14 6 -6 3 7 2 16 -1 19 -3 4 -6 -2 -5 -13z"/>
<path d="M2345 1234 c54 -105 -163 -196 -500 -207 -54 -2 -39 -4 45 -5 208 -3
367 25 465 82 69 41 72 106 6 140 l-30 16 14 -26z"/>
<path d="M566 821 c-10 -15 -136 -335 -136 -344 0 -5 12 -7 26 -5 21 2 30 12
43 48 l17 45 83 0 83 0 17 -45 c13 -37 22 -46 44 -48 15 -2 27 -1 27 2 0 2
-30 78 -66 168 -37 90 -69 169 -71 176 -6 14 -59 17 -67 3z m68 -126 c14 -39
26 -74 26 -78 0 -4 -30 -7 -66 -7 -36 0 -64 4 -62 8 2 5 17 43 33 85 17 41 33
73 36 69 4 -4 18 -39 33 -77z"/>
<path d="M865 816 c-43 -19 -58 -41 -58 -88 0 -51 22 -72 102 -94 104 -29 127
-52 97 -99 -20 -30 -57 -35 -148 -21 -44 7 -48 6 -48 -13 0 -25 31 -34 115
-35 102 -1 155 44 140 120 -7 42 -46 69 -123 85 -51 10 -92 37 -92 59 0 6 12
23 26 37 23 23 31 25 82 20 32 -3 65 -8 75 -12 16 -7 18 -4 15 16 -2 15 -12
26 -28 30 -42 12 -123 9 -155 -5z"/>
<path d="M1201 813 c-62 -33 -76 -62 -76 -167 0 -71 4 -98 18 -119 26 -41 74
-61 142 -62 114 0 165 55 165 180 0 123 -45 177 -153 183 -46 2 -71 -2 -96
-15z m136 -33 c43 -15 63 -57 63 -132 0 -78 -14 -108 -63 -132 -46 -22 -95
-16 -134 18 -24 21 -28 32 -31 97 -4 56 -1 80 13 106 26 47 88 65 152 43z"/>
<path d="M1613 813 c-3 -10 -35 -89 -70 -176 -35 -86 -63 -160 -63 -163 0 -3
12 -4 27 -2 22 2 31 11 44 48 l17 45 81 3 82 3 21 -51 c17 -40 25 -50 44 -50
13 0 24 4 24 8 0 4 -31 84 -68 177 -67 167 -69 170 -100 173 -24 2 -34 -1 -39
-15z m55 -70 c5 -16 19 -52 31 -80 l21 -53 -69 0 -68 0 31 80 c17 44 34 80 38
80 3 0 10 -12 16 -27z"/>
<path d="M1880 651 l0 -181 120 0 c113 0 120 1 120 20 0 19 -7 20 -95 20 l-94
0 -3 158 c-3 154 -3 157 -25 160 l-23 3 0 -180z"/>
<path d="M2176 823 c-3 -4 -6 -84 -6 -180 l0 -173 25 0 25 0 0 178 c0 168 -1
178 -19 179 -10 1 -22 -1 -25 -4z"/>
<path d="M2307 823 c-4 -3 -7 -84 -7 -180 l0 -173 93 1 c50 0 108 5 127 12 93
32 122 212 47 293 -25 26 -45 36 -86 44 -61 11 -164 13 -174 3z m205 -54 c30
-16 42 -51 42 -120 0 -108 -32 -139 -145 -139 l-59 0 0 134 c0 98 3 136 13
140 17 8 127 -3 149 -15z"/>
<path d="M2680 651 l0 -181 25 0 25 0 -2 178 c-3 175 -3 177 -25 180 l-23 3 0
-180z"/>
<path d="M2853 815 c-37 -16 -53 -42 -53 -87 0 -44 28 -74 83 -89 115 -31 135
-45 123 -92 -9 -38 -54 -48 -153 -34 -44 6 -51 5 -49 -9 4 -26 36 -37 111 -38
74 0 127 19 139 49 3 9 6 34 6 55 0 56 -29 81 -116 100 -27 6 -59 18 -71 26
-26 17 -30 56 -8 74 21 18 94 24 138 12 35 -10 37 -9 37 13 0 17 -7 24 -31 29
-51 10 -122 6 -156 -9z"/>
<path d="M3127 823 c-11 -10 -8 -235 4 -276 27 -98 216 -117 276 -28 21 31 23
45 23 173 0 139 0 139 -22 136 -22 -3 -23 -7 -28 -139 -3 -92 -9 -141 -18
-152 -24 -28 -76 -39 -122 -27 -59 16 -70 48 -70 200 0 110 -2 120 -18 120
-10 0 -22 -3 -25 -7z"/>
</g>
</svg>
